<svg width="23" height="23" viewBox="0 0 23 23" fill="none" xmlns="http://www.w3.org/2000/svg">
<path d="M14.9078 22.5448C14.7876 22.4259 14.6922 22.2843 14.627 22.1283C14.5617 21.9723 14.528 21.8048 14.5278 21.6357C14.533 21.2911 14.6723 20.962 14.9161 20.7184C15.16 20.4747 15.4892 20.3357 15.8339 20.3308H18.4819L14.7919 16.6417C14.5559 16.3951 14.426 16.0659 14.4297 15.7246C14.4334 15.3833 14.5705 15.0571 14.8118 14.8157C15.053 14.5743 15.3793 14.4369 15.7206 14.433C16.0619 14.4291 16.3911 14.559 16.6378 14.7948L20.3279 18.4847V15.8358C20.3279 15.4896 20.4654 15.1574 20.7102 14.9126C20.955 14.6678 21.2872 14.5303 21.6334 14.5303C21.9797 14.5303 22.3117 14.6678 22.5565 14.9126C22.8013 15.1574 22.9388 15.4896 22.9388 15.8358V21.6107C22.9344 21.9557 22.7955 22.2854 22.5515 22.5294C22.3075 22.7734 21.9779 22.9123 21.6329 22.9167L15.8188 22.9397C15.4764 22.9267 15.1514 22.7858 14.9078 22.5448ZM2.29285 22.9447C1.94793 22.9406 1.61839 22.8018 1.37439 22.558C1.13039 22.3142 0.991349 21.9847 0.986938 21.6398L0.963867 15.8247C0.965724 15.4722 1.10748 15.135 1.35803 14.8871C1.60858 14.6392 1.94745 14.501 2.29993 14.5028C2.6524 14.5047 2.98963 14.6464 3.23755 14.897C3.48547 15.1475 3.62368 15.4863 3.62183 15.8387V18.4878L7.31189 14.7977C7.55864 14.5619 7.88784 14.4321 8.22913 14.436C8.57041 14.4399 8.89666 14.5773 9.13794 14.8187C9.37922 15.0601 9.51641 15.3864 9.52014 15.7277C9.52387 16.069 9.39378 16.3982 9.15784 16.6448L5.4679 20.3337H8.11584C8.46208 20.3337 8.79423 20.4714 9.03906 20.7162C9.28389 20.961 9.42139 21.293 9.42139 21.6393C9.42139 21.9855 9.28389 22.3175 9.03906 22.5624C8.79423 22.8072 8.46208 22.9447 8.11584 22.9447H2.29285ZM7.26392 9.1637L3.57483 5.47473V8.1228C3.56888 8.46676 3.42923 8.79479 3.18542 9.03748C2.94161 9.28017 2.6129 9.41836 2.26892 9.42273C1.92575 9.41757 1.59803 9.27894 1.35535 9.03625C1.11266 8.79357 0.974033 8.46598 0.968872 8.1228V2.2998C0.973241 1.95582 1.11144 1.62699 1.35413 1.38318C1.59682 1.13937 1.92496 0.999727 2.26892 0.993774L8.08386 0.970703C8.43634 0.972692 8.77365 1.11471 9.02148 1.36536C9.26931 1.616 9.40738 1.95478 9.4054 2.30725C9.40341 2.65972 9.26151 2.99692 9.01086 3.24475C8.76022 3.49258 8.42132 3.63077 8.06885 3.62878H5.4209L9.10986 7.31873C9.23107 7.43994 9.32722 7.58382 9.39282 7.74219C9.45842 7.90056 9.49219 8.07028 9.49219 8.2417C9.49219 8.41312 9.45842 8.58296 9.39282 8.74133C9.32722 8.8997 9.23107 9.04358 9.10986 9.16479C8.98865 9.28601 8.84477 9.38216 8.6864 9.44775C8.52803 9.51335 8.35831 9.54712 8.18689 9.54712C8.01547 9.54712 7.84575 9.51335 7.68738 9.44775C7.52901 9.38216 7.38513 9.28601 7.26392 9.16479V9.1637ZM14.7919 9.11572C14.5477 8.87058 14.4106 8.53872 14.4106 8.19275C14.4106 7.84677 14.5477 7.51492 14.7919 7.26978L18.4819 3.58081H15.8339C15.49 3.57594 15.1615 3.43753 14.9178 3.19495C14.6741 2.95236 14.5343 2.62456 14.5278 2.28076C14.5325 1.93593 14.6717 1.60655 14.9156 1.36279C15.1596 1.11903 15.489 0.980108 15.8339 0.975708H21.6089C21.9537 0.980108 22.2832 1.11903 22.5271 1.36279C22.771 1.60655 22.9103 1.93593 22.9149 2.28076L22.9379 8.09473C22.9291 8.43695 22.7883 8.76251 22.5448 9.00317C22.3013 9.24384 21.9741 9.38095 21.6318 9.38574C21.288 9.3798 20.9601 9.2403 20.7174 8.9967C20.4747 8.75311 20.3365 8.42462 20.3319 8.08081V5.43274L16.6418 9.1228C16.3968 9.36719 16.0649 9.50439 15.7189 9.50439C15.3728 9.50439 15.0409 9.36719 14.7959 9.1228L14.7919 9.11572Z" fill="#CCCCCC"/>
</svg>
