<svg width="22" height="23" viewBox="0 0 22 23" fill="none" xmlns="http://www.w3.org/2000/svg">
<path d="M13.619 23.0001C13.2024 22.9999 12.803 22.8342 12.5084 22.5397C12.2139 22.2451 12.0482 21.8457 12.048 21.4291V14.6201C12.048 14.2035 12.2136 13.8039 12.5082 13.5093C12.8028 13.2147 13.2024 13.0491 13.619 13.0491H20.428C20.8446 13.0491 21.2442 13.2147 21.5388 13.5093C21.8334 13.8039 21.999 14.2035 21.999 14.6201V21.4291C21.999 21.8457 21.8334 22.2454 21.5388 22.54C21.2442 22.8347 20.8446 23.0001 20.428 23.0001H13.619ZM14.1429 20.9001H19.906V15.1371H14.1429V20.9001ZM1.57104 23.0001C1.15447 22.9999 0.755011 22.8342 0.460449 22.5397C0.165887 22.2451 0.000264912 21.8457 0 21.4291V14.6201C0 14.2035 0.165463 13.8039 0.460083 13.5093C0.754703 13.2147 1.15439 13.0491 1.57104 13.0491H8.38C8.79666 13.0491 9.19623 13.2147 9.49084 13.5093C9.78546 13.8039 9.95105 14.2035 9.95105 14.6201V21.4291C9.95105 21.8457 9.78546 22.2454 9.49084 22.54C9.19623 22.8347 8.79666 23.0001 8.38 23.0001H1.57104ZM2.09497 20.9001H7.85803V15.1371H2.09497V20.9001ZM13.62 10.9471C13.2033 10.9471 12.8038 10.7816 12.5092 10.4869C12.2145 10.1923 12.049 9.79275 12.049 9.3761V2.56714C12.0492 2.15056 12.2148 1.75111 12.5094 1.45654C12.804 1.16198 13.2034 0.996359 13.62 0.996094H20.429C20.8456 0.996094 21.2453 1.16168 21.5399 1.4563C21.8345 1.75092 22 2.15048 22 2.56714V9.3761C22 9.79275 21.8345 10.1923 21.5399 10.4869C21.2453 10.7816 20.8456 10.9471 20.429 10.9471H13.62ZM14.144 8.84717H19.907V3.1001H14.144V8.84717ZM1.57202 10.9471C1.15537 10.9471 0.755801 10.7816 0.461182 10.4869C0.166562 10.1923 0.000976562 9.79275 0.000976562 9.3761V2.56714C0.00124147 2.15056 0.166864 1.75111 0.461426 1.45654C0.755988 1.16198 1.15545 0.996359 1.57202 0.996094H8.38098C8.79764 0.996094 9.1972 1.16168 9.49182 1.4563C9.78644 1.75092 9.95203 2.15048 9.95203 2.56714V9.3761C9.95203 9.79275 9.78644 10.1923 9.49182 10.4869C9.1972 10.7816 8.79764 10.9471 8.38098 10.9471H1.57202ZM2.09595 8.84717H7.85901V3.1001H2.09595V8.84717Z" fill="#CCCCCC"/>
</svg>
