<svg width="36" height="36" viewBox="0 0 36 36" fill="none" xmlns="http://www.w3.org/2000/svg">
<path d="M30 0H6C2.68629 0 0 2.68629 0 6V30C0 33.3137 2.68629 36 6 36H30C33.3137 36 36 33.3137 36 30V6C36 2.68629 33.3137 0 30 0Z" fill="#6287F2"/>
<path d="M14.444 26.265L19.249 9L21.557 9.67505L16.752 26.9391L14.444 26.265ZM23.999 22.2721L23.159 21.411L25.319 19.197L26.519 17.968L25.319 16.738L23.159 14.525L23.999 13.541L24.84 12.6801L30 17.968L28.919 18.952L24.84 23.1331L23.999 22.2721ZM5.99902 17.972L7.08002 16.8651L11.159 12.6851L12 13.546L12.84 14.53L10.68 16.743L9.48002 17.973L10.68 19.202L12.84 21.416L12 22.2771L11.159 23.1381L5.99902 17.972Z" fill="white"/>
</svg>
