<svg width="21" height="22" viewBox="0 0 21 22" fill="none" xmlns="http://www.w3.org/2000/svg">
<path d="M10.8052 21.1941C10.419 21.1941 10.0487 21.0408 9.77563 20.7677C9.50258 20.4946 9.34937 20.1243 9.34937 19.7382V12.4572H2.06836C1.6822 12.4572 1.31187 12.3037 1.03882 12.0306C0.765765 11.7576 0.612305 11.3873 0.612305 11.0011C0.612305 10.6149 0.765765 10.2446 1.03882 9.97156C1.31187 9.6985 1.6822 9.54517 2.06836 9.54517H9.34937V2.26416C9.34937 1.87787 9.50273 1.5074 9.77588 1.23425C10.049 0.961106 10.4194 0.807617 10.8057 0.807617C11.192 0.807617 11.5625 0.961106 11.8357 1.23425C12.1088 1.5074 12.2622 1.87787 12.2622 2.26416V9.54517H19.5432C19.9294 9.54517 20.2997 9.6985 20.5728 9.97156C20.8458 10.2446 20.9993 10.6149 20.9993 11.0011C20.9993 11.3873 20.8458 11.7576 20.5728 12.0306C20.2997 12.3037 19.9294 12.4572 19.5432 12.4572H12.2622V19.7382C12.2622 19.9294 12.2246 20.1188 12.1514 20.2955C12.0781 20.4722 11.9708 20.6329 11.8354 20.7681C11.7001 20.9033 11.5396 21.0105 11.3628 21.0836C11.186 21.1567 10.9965 21.1942 10.8052 21.1941Z" fill="#CCCCCC"/>
</svg>
