<svg width="29" height="23" viewBox="0 0 29 23" fill="none" xmlns="http://www.w3.org/2000/svg">
<path d="M6.23779 22.9716C4.69886 22.9708 3.22304 22.3597 2.13391 21.2725C1.04478 20.1852 0.431176 18.7104 0.427734 17.1715V9.65356C0.430912 8.11455 1.04436 6.63956 2.13354 5.55225C3.22273 4.46494 4.69878 3.85404 6.23779 3.85352H7.83777C8.35152 2.98093 9.08345 2.257 9.96167 1.75293C10.8399 1.24886 11.8342 0.981999 12.8468 0.978516H16.1667C17.1794 0.982319 18.1737 1.24939 19.052 1.75342C19.9303 2.25745 20.6625 2.98112 21.1768 3.85352H22.6627C24.2017 3.85431 25.6777 4.46527 26.767 5.55249C27.8563 6.63971 28.47 8.11454 28.4738 9.65356V17.1715C28.4703 18.7106 27.8567 20.1855 26.7673 21.2728C25.678 22.3601 24.2018 22.971 22.6627 22.9716H6.23779ZM3.1908 9.65149V17.1696C3.19238 17.9765 3.51395 18.7499 4.08496 19.3202C4.65597 19.8904 5.42982 20.211 6.23682 20.2115H22.6608C23.4679 20.2113 24.242 19.8908 24.8132 19.3206C25.3845 18.7503 25.7062 17.9767 25.7078 17.1696V9.65149C25.7062 8.84459 25.3846 8.07132 24.8136 7.50122C24.2426 6.93112 23.4686 6.61074 22.6617 6.61047H20.3087C20.027 6.61008 19.7522 6.52375 19.521 6.36292C19.2898 6.20208 19.1131 5.97451 19.0148 5.71057C18.7959 5.13123 18.4064 4.63187 17.8977 4.27869C17.389 3.9255 16.7851 3.7351 16.1658 3.73254H12.8447C12.2254 3.7351 11.6215 3.9255 11.1128 4.27869C10.6041 4.63187 10.2146 5.13123 9.99573 5.71057C9.8976 5.97467 9.72104 6.20241 9.48975 6.36328C9.25845 6.52415 8.98352 6.61037 8.70178 6.61047H6.23877C5.43169 6.61047 4.65755 6.93073 4.0863 7.50085C3.51505 8.07098 3.19336 8.84441 3.19177 9.65149H3.1908ZM9.46277 12.6846C9.46138 11.687 9.75598 10.7114 10.3092 9.88135C10.8624 9.05125 11.6494 8.4039 12.5707 8.02124C13.4919 7.63858 14.506 7.53773 15.4845 7.73157C16.463 7.9254 17.3621 8.40515 18.0679 9.11011C18.7737 9.81506 19.2545 10.7136 19.4495 11.6919C19.6445 12.6702 19.5449 13.6844 19.1633 14.6061C18.7818 15.5278 18.1353 16.3155 17.3059 16.8698C16.4765 17.424 15.5013 17.7197 14.5038 17.7195C13.1683 17.7184 11.8877 17.1878 10.9429 16.2439C9.99806 15.3 9.46613 14.0201 9.46375 12.6846H9.46277ZM11.9318 12.6846C11.9312 13.1934 12.0815 13.6909 12.3638 14.1143C12.646 14.5376 13.0475 14.8677 13.5175 15.0629C13.9874 15.258 14.5045 15.3094 15.0037 15.2104C15.5028 15.1115 15.9614 14.8668 16.3214 14.5072C16.6814 14.1476 16.9266 13.6894 17.0261 13.1904C17.1256 12.6914 17.0748 12.1741 16.8802 11.704C16.6857 11.2338 16.356 10.8319 15.933 10.5492C15.51 10.2664 15.0126 10.1155 14.5038 10.1155C13.8225 10.1163 13.1693 10.3871 12.6874 10.8687C12.2055 11.3502 11.9341 12.0033 11.9327 12.6846H11.9318Z" fill="#CCCCCC"/>
</svg>
