<svg width="37" height="37" viewBox="0 0 37 37" fill="none" xmlns="http://www.w3.org/2000/svg">
<path d="M18.0005 22C20.2096 22 22.0005 20.2091 22.0005 18C22.0005 15.7909 20.2096 14 18.0005 14C15.7913 14 14.0005 15.7909 14.0005 18C14.0005 20.2091 15.7913 22 18.0005 22Z" fill="#36D7B7"/>
<path d="M30.7852 5.30461L33.0672 3.02861C33.1681 2.92751 33.2968 2.85858 33.4369 2.83061C33.5769 2.80264 33.7222 2.8169 33.8542 2.8715C33.9862 2.9261 34.099 3.01862 34.1784 3.13737C34.2578 3.25612 34.3002 3.39577 34.3002 3.53862V10.0846C34.2994 10.2761 34.223 10.4596 34.0876 10.595C33.9522 10.7304 33.7687 10.8068 33.5772 10.8075H27.0162C26.8737 10.8085 26.7341 10.767 26.6152 10.6883C26.4963 10.6096 26.4036 10.4972 26.3488 10.3656C26.294 10.234 26.2796 10.0891 26.3074 9.94926C26.3353 9.80945 26.4042 9.68115 26.5052 9.58061L28.2352 7.85759C25.9215 5.56819 22.8989 4.13247 19.6624 3.78569C16.426 3.4389 13.1678 4.20155 10.4216 5.94877C7.67536 7.696 5.60398 10.3242 4.54681 13.4026C3.48964 16.4811 3.50938 19.8273 4.60279 22.8931C5.6962 25.9589 7.79844 28.5624 10.5651 30.2771C13.3317 31.9918 16.5987 32.716 19.8308 32.3311C23.0629 31.9462 26.0684 30.4749 28.355 28.1584C30.6415 25.8418 32.0734 22.8174 32.4162 19.5806C32.4699 19.1479 32.6806 18.7499 33.0084 18.4623C33.3362 18.1747 33.7582 18.0175 34.1942 18.0206C34.4501 18.0215 34.703 18.0766 34.9362 18.1819C35.1694 18.2873 35.3778 18.4407 35.5477 18.6321C35.7176 18.8235 35.8452 19.0486 35.9221 19.2926C35.9991 19.5367 36.0236 19.7944 35.9942 20.0486C35.4755 24.5369 33.2924 28.6674 29.8763 31.6243C26.4602 34.5813 22.0595 36.1496 17.5432 36.0196C12.9542 35.8474 8.59907 33.95 5.34813 30.7065C2.0972 27.4629 0.189852 23.1122 0.007213 18.5236C-0.0949077 14.9154 0.889335 11.3597 2.83232 8.31755C4.77531 5.27542 7.58742 2.88715 10.904 1.46245C14.2207 0.0377415 17.8888 -0.357648 21.4329 0.327437C24.977 1.01252 28.2335 2.74649 30.7802 5.30461H30.7852Z" fill="#CCCCCC"/>
</svg>
