<svg width="22" height="22" viewBox="0 0 22 22" fill="none" xmlns="http://www.w3.org/2000/svg">
<path d="M21.5811 19.659L16.735 14.779C17.9198 13.1903 18.5587 11.2608 18.556 9.27898C18.5558 7.44401 18.0115 5.65019 16.9919 4.12456C15.9723 2.59893 14.5232 1.41001 12.8279 0.707935C11.1325 0.00585824 9.26697 -0.17776 7.46728 0.180347C5.66759 0.538453 4.01461 1.42218 2.71716 2.71978C1.41971 4.01737 0.536134 5.67054 0.178222 7.47026C-0.179691 9.26999 0.00403869 11.1355 0.706298 12.8307C1.40856 14.526 2.5978 15.9749 4.12353 16.9943C5.64927 18.0137 7.44298 18.5579 9.27795 18.5579C11.2598 18.5604 13.1892 17.9216 14.778 16.737L19.624 21.582C19.7515 21.7124 19.9038 21.816 20.0719 21.8868C20.24 21.9575 20.4206 21.9939 20.603 21.9939C20.7854 21.9939 20.9659 21.9575 21.134 21.8868C21.3022 21.816 21.4545 21.7124 21.582 21.582C21.712 21.4578 21.8155 21.3085 21.8861 21.1432C21.9568 20.9779 21.9931 20.7999 21.993 20.6202C21.9929 20.4404 21.9563 20.2626 21.8855 20.0973C21.8147 19.9321 21.7112 19.783 21.5811 19.659ZM9.281 15.81C7.98969 15.81 6.72737 15.4271 5.65369 14.7096C4.58 13.9922 3.74319 12.9725 3.24902 11.7795C2.75486 10.5864 2.62552 9.27363 2.87744 8.00713C3.12936 6.74063 3.75121 5.57733 4.66431 4.66423C5.5774 3.75114 6.7407 3.12929 8.0072 2.87737C9.2737 2.62545 10.5865 2.75479 11.7795 3.24895C12.9726 3.74311 13.9923 4.57993 14.7097 5.65361C15.4271 6.7273 15.8101 7.98962 15.8101 9.28093C15.8103 10.1386 15.6415 10.9878 15.3134 11.7802C14.9852 12.5726 14.5041 13.2926 13.8976 13.899C13.291 14.5053 12.5709 14.9861 11.7784 15.314C10.986 15.6419 10.1367 15.8105 9.27905 15.81H9.281Z" fill="#CCCCCC"/>
</svg>
