<svg width="38" height="38" viewBox="0 0 38 38" fill="none" xmlns="http://www.w3.org/2000/svg">
<path d="M35.752 16.1014H34.4261C34.1526 16.0948 33.8883 16.0016 33.6712 15.8352C33.4541 15.6688 33.2955 15.4377 33.2181 15.1754C32.8987 13.991 32.4246 12.8539 31.808 11.7934C31.6708 11.5512 31.616 11.271 31.6521 10.9949C31.6882 10.7189 31.8131 10.4621 32.0081 10.2634L32.974 9.2974C33.189 9.08075 33.3162 8.79225 33.3311 8.48743C33.3461 8.18261 33.2478 7.88304 33.055 7.6464C32.2785 6.70875 31.4157 5.84598 30.4781 5.0694C30.2416 4.87627 29.9419 4.77765 29.637 4.79261C29.332 4.80757 29.0435 4.93504 28.8271 5.15039L27.861 6.1164C27.663 6.3125 27.4061 6.43824 27.1298 6.47437C26.8534 6.51049 26.5728 6.45502 26.3311 6.31641C25.2706 5.70009 24.1334 5.22634 22.949 4.90741C22.6826 4.83703 22.4471 4.68025 22.2793 4.46164C22.1116 4.24304 22.0211 3.97496 22.0221 3.69941V2.33039C22.0206 2.02005 21.9049 1.72113 21.697 1.49073C21.4891 1.26032 21.2036 1.11459 20.8951 1.08139C20.2935 1.01471 19.6882 0.988001 19.083 1.00141C18.483 1.00141 17.8751 1.04139 17.2711 1.08139C16.9626 1.1148 16.6772 1.26058 16.4693 1.49094C16.2615 1.7213 16.1457 2.02012 16.144 2.33039V3.6594C16.1371 3.93289 16.0436 4.19715 15.877 4.41419C15.7105 4.63123 15.4794 4.7899 15.2171 4.8674C14.0326 5.18616 12.8954 5.65992 11.835 6.2764C11.5928 6.41394 11.3123 6.46883 11.0361 6.43274C10.7598 6.39666 10.5029 6.27155 10.3041 6.07639L9.33805 5.10941C9.12163 4.89406 8.83306 4.76658 8.52812 4.75162C8.22318 4.73666 7.92351 4.83528 7.68705 5.02842C6.74907 5.80496 5.88596 6.66773 5.10905 7.60541C4.91634 7.84206 4.818 8.14163 4.83296 8.44645C4.84791 8.75126 4.97511 9.03977 5.19005 9.25641L6.15605 10.2224C6.3523 10.4204 6.47815 10.6773 6.51428 10.9536C6.55041 11.23 6.49482 11.5107 6.35605 11.7524C5.7395 12.8133 5.26542 13.9507 4.94605 15.1354C4.87563 15.4017 4.71882 15.6371 4.5002 15.8047C4.28158 15.9723 4.01351 16.0626 3.73805 16.0614H2.32605C2.01573 16.0631 1.71692 16.1791 1.4867 16.3871C1.25648 16.5952 1.11099 16.8808 1.07805 17.1894C1.01084 17.7909 0.983779 18.3963 0.997051 19.0014C0.997051 19.6014 1.03705 20.2094 1.07805 20.8134C1.11099 21.122 1.25648 21.4076 1.4867 21.6157C1.71692 21.8237 2.01573 21.9397 2.32605 21.9414H3.65605C3.92932 21.9482 4.1934 22.0415 4.41029 22.2079C4.62718 22.3743 4.78569 22.6052 4.86305 22.8674C5.18246 24.0518 5.65654 25.1889 6.27305 26.2494C6.41035 26.4916 6.46509 26.7718 6.429 27.0479C6.39292 27.3239 6.26798 27.5807 6.07305 27.7794L5.10705 28.7454C4.89211 28.962 4.76491 29.2505 4.74996 29.5554C4.735 29.8602 4.83334 30.1598 5.02605 30.3964C5.80265 31.334 6.66543 32.1968 7.60305 32.9734C7.83952 33.1665 8.13918 33.2651 8.44412 33.2502C8.74906 33.2352 9.03763 33.1077 9.25405 32.8924L10.2211 31.9264C10.4188 31.7302 10.6756 31.6044 10.9518 31.5683C11.228 31.5322 11.5085 31.5877 11.75 31.7264C12.8105 32.3429 13.9477 32.817 15.1321 33.1364C15.3983 33.207 15.6336 33.3638 15.8012 33.5824C15.9687 33.801 16.0591 34.069 16.058 34.3444V35.6734C16.06 35.9837 16.176 36.2823 16.384 36.5125C16.5921 36.7427 16.8776 36.8882 17.1861 36.9214C17.7876 36.9885 18.3929 37.0156 18.9981 37.0024C19.5981 37.0024 20.206 36.9624 20.81 36.9214C21.1186 36.8884 21.4042 36.743 21.6123 36.5128C21.8204 36.2825 21.9364 35.9837 21.9381 35.6734V34.3434C21.9448 34.07 22.0381 33.8058 22.2045 33.5887C22.3709 33.3717 22.6018 33.213 22.864 33.1354C24.0484 32.816 25.1856 32.3419 26.2461 31.7254C26.4883 31.5879 26.7688 31.533 27.045 31.5691C27.3213 31.6052 27.5782 31.7302 27.7771 31.9254L28.7431 32.8914C28.9595 33.1067 29.248 33.2342 29.553 33.2492C29.8579 33.2641 30.1576 33.1655 30.394 32.9724C31.3317 32.1958 32.1944 31.333 32.9711 30.3954C33.1638 30.1587 33.2621 29.8592 33.2471 29.5544C33.2322 29.2495 33.105 28.961 32.89 28.7444L31.9241 27.7784C31.728 27.5804 31.6022 27.3235 31.5661 27.0471C31.5299 26.7708 31.5854 26.4902 31.724 26.2484C32.3405 25.1879 32.8146 24.0508 33.1341 22.8664C33.2046 22.6002 33.3615 22.3649 33.5801 22.1973C33.7986 22.0297 34.0666 21.9394 34.3421 21.9404H35.67C35.9805 21.9387 36.2794 21.8228 36.5098 21.6147C36.7402 21.4067 36.8859 21.1211 36.919 20.8124C36.985 20.2108 37.0114 19.6055 36.9981 19.0004C36.9981 18.4004 36.958 17.7924 36.919 17.1884C36.9081 16.8896 36.7791 16.6074 36.5603 16.4036C36.3415 16.1998 36.0509 16.0912 35.752 16.1014ZM19.041 26.2134C17.6234 26.2134 16.2375 25.793 15.0587 25.0054C13.8799 24.2177 12.9612 23.0983 12.4187 21.7885C11.8762 20.4787 11.7342 19.0375 12.0108 17.647C12.2874 16.2566 12.97 14.9793 13.9725 13.9769C14.975 12.9744 16.2522 12.2917 17.6426 12.0151C19.0331 11.7386 20.4743 11.8805 21.7841 12.423C23.0939 12.9656 24.2134 13.8843 25.001 15.0631C25.7887 16.2419 26.209 17.6277 26.209 19.0454C26.2048 20.9452 25.4483 22.7659 24.1049 24.1093C22.7616 25.4526 20.9408 26.2092 19.041 26.2134Z" fill="#cccccc"/>
</svg>
