<svg width="20" height="19" viewBox="0 0 20 19" fill="none" xmlns="http://www.w3.org/2000/svg">
<path d="M5.3453 0C7.92711 0 9.5242 2.11014 10 3.16521V18.9292C9.83451 18.5568 9.14353 17.4397 7.70367 15.9502C5.90385 14.0883 3.85579 13.0332 1.4974 9.80593C-0.860988 6.57866 0.194081 4.03409 0.504395 3.16521C0.81471 2.29633 2.11803 0 5.3453 0Z" fill="#CCCCCC"/>
<path d="M14.6547 0C12.0729 0 10.4758 2.11014 10 3.16521V18.9292C10.1655 18.5568 10.8565 17.4397 12.2963 15.9502C14.0961 14.0883 16.1442 13.0332 18.5026 9.80593C20.861 6.57866 19.8059 4.03409 19.4956 3.16521C19.1853 2.29633 17.882 0 14.6547 0Z" fill="#CCCCCC"/>
</svg>
