<svg width="37" height="29" viewBox="0 0 37 29" fill="none" xmlns="http://www.w3.org/2000/svg">
<path d="M35.47 15.7753L19.17 22.5173H19.163H19.155C18.9506 22.6022 18.7314 22.6459 18.51 22.6459C18.2887 22.6459 18.0695 22.6022 17.865 22.5173H17.857H17.85L1.55003 15.7753C1.34287 15.6922 1.15425 15.5689 0.995079 15.4125C0.835912 15.2561 0.709366 15.0696 0.622772 14.8639C0.536177 14.6582 0.491256 14.4374 0.490608 14.2143C0.48996 13.9911 0.533596 13.77 0.618995 13.5638C0.704394 13.3576 0.829857 13.1704 0.988113 13.0131C1.14637 12.8557 1.33427 12.7313 1.54094 12.6471C1.74761 12.5629 1.96894 12.5205 2.1921 12.5224C2.41527 12.5243 2.63583 12.5705 2.84103 12.6583H2.84903H2.85603L18.508 19.1333L34.16 12.6583H34.168H34.175C34.3806 12.5686 34.6019 12.5208 34.8261 12.5177C35.0503 12.5146 35.2729 12.5562 35.4808 12.6401C35.6888 12.724 35.8779 12.8485 36.0372 13.0064C36.1964 13.1642 36.3226 13.3523 36.4083 13.5594C36.4941 13.7666 36.5377 13.9888 36.5365 14.213C36.5354 14.4373 36.4896 14.659 36.4018 14.8654C36.3139 15.0717 36.1859 15.2584 36.025 15.4146C35.8642 15.5709 35.6738 15.6935 35.465 15.7753H35.47ZM35.465 9.99426L19.165 16.7363H19.158H19.15C18.9456 16.8212 18.7264 16.8649 18.505 16.8649C18.2837 16.8649 18.0645 16.8212 17.86 16.7363H17.852H17.845L1.55503 9.99628C1.24682 9.86857 0.983399 9.65235 0.798068 9.37494C0.612738 9.09753 0.513816 8.77139 0.513816 8.43777C0.513816 8.10416 0.612738 7.77802 0.798068 7.50061C0.983399 7.2232 1.24682 7.00698 1.55503 6.87927L17.855 0.137268H17.862H17.87C18.0745 0.0524337 18.2937 0.00878906 18.515 0.00878906C18.7364 0.00878906 18.9556 0.0524337 19.16 0.137268H19.168H19.175L35.475 6.87927C35.7836 7.00662 36.0474 7.22273 36.2331 7.50018C36.4187 7.77763 36.5178 8.10394 36.5178 8.43777C36.5178 8.77161 36.4187 9.09791 36.2331 9.37537C36.0474 9.65282 35.7836 9.86893 35.475 9.99628L35.465 9.99426ZM2.20003 18.3113C2.4214 18.3117 2.64054 18.3555 2.84503 18.4402H2.85303H2.86003L18.512 24.9153L34.164 18.4402H34.172H34.179C34.3846 18.3506 34.6059 18.3029 34.8301 18.2997C35.0543 18.2966 35.2769 18.3382 35.4848 18.4221C35.6928 18.506 35.8819 18.6305 36.0411 18.7884C36.2004 18.9462 36.3266 19.1342 36.4123 19.3414C36.4981 19.5486 36.5417 19.7708 36.5405 19.9951C36.5394 20.2193 36.4936 20.441 36.4058 20.6473C36.3179 20.8537 36.1898 21.0404 36.029 21.1967C35.8682 21.3529 35.6778 21.4754 35.469 21.5573L19.169 28.2993H19.162H19.154C18.9496 28.384 18.7304 28.4277 18.509 28.4277C18.2877 28.4277 18.0685 28.384 17.864 28.2993H17.856H17.849L1.54903 21.5573C1.18814 21.408 0.890204 21.1383 0.706024 20.7939C0.521844 20.4496 0.462832 20.052 0.539054 19.669C0.615277 19.286 0.822014 18.9413 1.124 18.6937C1.42599 18.4461 1.80451 18.311 2.19503 18.3113" fill="#CCCCCC"/>
</svg>
