<svg width="20" height="19" viewBox="0 0 20 19" fill="none" xmlns="http://www.w3.org/2000/svg">
<path d="M2.125 18.5C1.82671 18.4997 1.54072 18.3811 1.3298 18.1702C1.11888 17.9593 1.00026 17.6733 1 17.375L1 15.125C1 14.8266 1.11853 14.5405 1.3295 14.3295C1.54048 14.1185 1.82663 14 2.125 14H4.374C4.43158 14 4.48908 14.0043 4.546 14.013V14.008L14.508 4.04601C14.4994 3.98942 14.495 3.93226 14.495 3.87501V1.62501C14.495 1.47685 14.5243 1.33015 14.5811 1.19333C14.638 1.05652 14.7213 0.932275 14.8263 0.827743C14.9313 0.723211 15.0559 0.640449 15.1929 0.584207C15.33 0.527966 15.4768 0.499353 15.625 0.500011H17.875C18.1734 0.500011 18.4595 0.618538 18.6705 0.829516C18.8815 1.04049 19 1.32664 19 1.62501V3.87501C18.9997 4.1733 18.8811 4.45929 18.6702 4.67021C18.4593 4.88113 18.1733 4.99975 17.875 5.00001H15.625C15.5429 4.99992 15.4611 4.99087 15.381 4.97301L5.472 14.882C5.48979 14.9618 5.49884 15.0433 5.499 15.125V17.375C5.49874 17.6733 5.38012 17.9593 5.1692 18.1702C4.95828 18.3811 4.67229 18.4997 4.374 18.5H2.125ZM2.125 17.375H4.375V15.125H2.125V17.375ZM17.875 3.87501V1.62501H15.625V3.83201C15.6385 3.84554 15.6512 3.8599 15.663 3.87501H17.875Z" fill="#999999" stroke="#999999" stroke-miterlimit="10"/>
</svg>
