<svg width="19" height="19" viewBox="0 0 19 19" fill="none" xmlns="http://www.w3.org/2000/svg">
<path d="M3.875 5H1.625C1.32671 4.99974 1.04076 4.88115 0.829834 4.67023C0.618913 4.45931 0.500265 4.17329 0.5 3.875V1.625C0.500265 1.32671 0.618913 1.04069 0.829834 0.829773C1.04076 0.618852 1.32671 0.500265 1.625 0.5H3.875C4.17329 0.500265 4.45924 0.618852 4.67017 0.829773C4.88109 1.04069 4.99974 1.32671 5 1.625V3.875C4.99974 4.17329 4.88109 4.45931 4.67017 4.67023C4.45924 4.88115 4.17329 4.99974 3.875 5ZM3.875 1.625H1.625V3.875H3.875V1.625ZM17.375 5H15.125C14.8267 4.99974 14.5408 4.88115 14.3298 4.67023C14.1189 4.45931 14.0003 4.17329 14 3.875V1.625C14.0003 1.32671 14.1189 1.04069 14.3298 0.829773C14.5408 0.618852 14.8267 0.500265 15.125 0.5H17.375C17.6734 0.500264 17.9596 0.618819 18.1707 0.829712C18.3817 1.0406 18.5004 1.32662 18.501 1.625V3.875C18.5004 4.17338 18.3817 4.4594 18.1707 4.67029C17.9596 4.88118 17.6734 4.99974 17.375 5ZM17.375 1.625H15.125V3.875H17.375V1.625ZM3.875 18.5H1.625C1.32671 18.4997 1.04076 18.3811 0.829834 18.1702C0.618913 17.9593 0.500265 17.6733 0.5 17.375V15.125C0.500265 14.8267 0.618913 14.5407 0.829834 14.3298C1.04076 14.1189 1.32671 14.0003 1.625 14H3.875C4.17329 14.0003 4.45924 14.1189 4.67017 14.3298C4.88109 14.5407 4.99974 14.8267 5 15.125V17.375C4.99974 17.6733 4.88109 17.9593 4.67017 18.1702C4.45924 18.3811 4.17329 18.4997 3.875 18.5ZM1.625 15.125V17.375H3.875V15.125H1.625ZM17.375 18.5H15.125C14.8267 18.4997 14.5408 18.3811 14.3298 18.1702C14.1189 17.9593 14.0003 17.6733 14 17.375V15.125C14.0003 14.8267 14.1189 14.5407 14.3298 14.3298C14.5408 14.1189 14.8267 14.0003 15.125 14H17.375C17.6734 14.0003 17.9596 14.1188 18.1707 14.3297C18.3817 14.5406 18.5004 14.8266 18.501 15.125V17.375C18.5004 17.6734 18.3817 17.9594 18.1707 18.1703C17.9596 18.3812 17.6734 18.4997 17.375 18.5ZM15.125 15.125V17.375H17.377V15.125H15.125ZM2.75 14.562C2.60086 14.562 2.45785 14.5028 2.35229 14.3975C2.24674 14.2921 2.18728 14.1491 2.18701 14V5C2.18701 4.85068 2.24622 4.70751 2.35181 4.60193C2.45739 4.49635 2.60068 4.43701 2.75 4.43701C2.89932 4.43701 3.04261 4.49635 3.14819 4.60193C3.25378 4.70751 3.31299 4.85068 3.31299 5V14C3.31299 14.1493 3.25378 14.2925 3.14819 14.3981C3.04261 14.5037 2.89932 14.563 2.75 14.563V14.562ZM16.25 14.562C16.1009 14.562 15.9579 14.5028 15.8525 14.3974C15.7471 14.292 15.688 14.1491 15.688 14V5C15.688 4.85082 15.7473 4.70772 15.8528 4.60223C15.9583 4.49674 16.1013 4.4375 16.2505 4.4375C16.3997 4.4375 16.5427 4.49674 16.6482 4.60223C16.7537 4.70772 16.813 4.85082 16.813 5V14C16.8131 14.074 16.7988 14.1472 16.7705 14.2156C16.7423 14.2839 16.7007 14.3461 16.6484 14.3984C16.5961 14.4507 16.5339 14.4921 16.4656 14.5204C16.3972 14.5486 16.324 14.5631 16.25 14.563V14.562ZM14 16.812H5C4.85492 16.8059 4.71792 16.7439 4.61743 16.6391C4.51694 16.5343 4.46069 16.3947 4.46069 16.2495C4.46069 16.1043 4.51694 15.9647 4.61743 15.8599C4.71792 15.755 4.85492 15.6931 5 15.687H14C14.0759 15.6838 14.1516 15.696 14.2227 15.7228C14.2937 15.7496 14.3585 15.7905 14.4133 15.8431C14.4681 15.8956 14.5117 15.9587 14.5415 16.0286C14.5713 16.0984 14.5867 16.1736 14.5867 16.2495C14.5867 16.3254 14.5713 16.4006 14.5415 16.4704C14.5117 16.5402 14.4681 16.6033 14.4133 16.6559C14.3585 16.7084 14.2937 16.7494 14.2227 16.7762C14.1516 16.803 14.0759 16.8152 14 16.812ZM14 3.31201H5C4.85492 3.30589 4.71792 3.24392 4.61743 3.1391C4.51694 3.03428 4.46069 2.89472 4.46069 2.74951C4.46069 2.6043 4.51694 2.46468 4.61743 2.35986C4.71792 2.25504 4.85492 2.19313 5 2.18701H14C14.0759 2.18381 14.1516 2.19595 14.2227 2.22278C14.2937 2.2496 14.3585 2.29053 14.4133 2.34308C14.4681 2.39563 14.5117 2.45872 14.5415 2.52856C14.5713 2.59841 14.5867 2.67358 14.5867 2.74951C14.5867 2.82544 14.5713 2.90056 14.5415 2.9704C14.5117 3.04024 14.4681 3.10334 14.4133 3.15588C14.3585 3.20843 14.2937 3.24936 14.2227 3.27618C14.1516 3.30301 14.0759 3.31521 14 3.31201Z" fill="#999999" stroke="#999999"/>
</svg>
