<svg width="16" height="17" viewBox="0 0 16 17" fill="none" xmlns="http://www.w3.org/2000/svg">
<path d="M14.4261 0.0463867C14.3147 0.0281059 14.2013 0.0244219 14.0889 0.0354004C14.0559 0.0354004 14.0251 0.0253906 13.9891 0.0253906H2.85992C2.82592 0.0253906 2.79406 0.0324004 2.76006 0.0354004C2.43853 0.0126189 2.11997 0.110102 1.86626 0.308929C1.61256 0.507757 1.44175 0.793735 1.38702 1.11139L1.01592 3.21741C0.955029 3.55972 1.03227 3.9122 1.23077 4.19766C1.42926 4.48313 1.7329 4.67829 2.075 4.74039C2.15021 4.75432 2.22655 4.76134 2.30303 4.76138C2.61096 4.76024 2.90868 4.65065 3.14385 4.45187C3.37902 4.25309 3.5365 3.97784 3.58892 3.67441L3.7691 2.65341H6.89996L5.01592 13.4044H3.49688C3.14838 13.4044 2.81435 13.5428 2.56792 13.7892C2.3215 14.0357 2.18291 14.3699 2.18291 14.7184C2.18291 15.0669 2.3215 15.4011 2.56792 15.6475C2.81435 15.8939 3.14838 16.0324 3.49688 16.0324H8.74395C9.09244 16.0324 9.42673 15.8939 9.67315 15.6475C9.91957 15.4011 10.0579 15.0669 10.0579 14.7184C10.0579 14.3699 9.91957 14.0357 9.67315 13.7892C9.42673 13.5428 9.09244 13.4044 8.74395 13.4044H7.66607L9.54888 2.65341H12.6399L12.5401 3.21741C12.4786 3.55965 12.5553 3.91228 12.7537 4.19785C12.9521 4.48342 13.2558 4.67855 13.598 4.74039C13.6735 4.75432 13.7501 4.76134 13.827 4.76138C14.1346 4.76004 14.4319 4.6505 14.6668 4.45193C14.9017 4.25337 15.0593 3.97847 15.1119 3.67538L15.483 1.5694C15.5434 1.22744 15.4661 0.875458 15.2681 0.590179C15.0701 0.304901 14.7676 0.109437 14.4261 0.0463867Z" fill="#999999"/>
</svg>
